<svg width="494" height="435" viewBox="0 0 494 435" fill="none" xmlns="http://www.w3.org/2000/svg">
<path fill-rule="evenodd" clip-rule="evenodd" d="M0 330.5C21.4982 297.05 69 236 69 236H49.5C57.4087 227.305 65.5265 217.547 73.2643 208.246C80.9019 199.065 88.1693 190.329 94.5 183.5C101.721 175.71 108.126 169.551 114.803 163.131C122.843 155.399 131.277 147.29 142 135.5L133.5 131C209.477 49.6569 264.871 27.0756 371 0C319.885 26.1815 302.855 40.9492 299 67.5C377.799 61.3088 420.618 71.4519 494 119C412.4 85.5814 350.5 84.5 246 120.5L294.5 117.5C292.55 173.136 277.486 190.615 233.5 205C262.464 177.684 268.957 164.057 270.5 141.5C215 135.5 157 177 218.5 247C161.432 238.873 134.818 242.743 101 271C174.562 251.566 186.786 263.03 157.5 324C144 282.5 122.5 291.453 111.5 296.5C69 316 62.1929 338.7 85.5 374.5C48.958 367.606 34.0116 361.438 18 346C29.4848 339.964 34.6863 335.226 40.5 323C24.1747 332.671 15.231 335.305 0 330.5ZM110 216.5C119.5 212.5 121.848 204.001 125 182.5C124.615 182.86 124.237 183.215 123.864 183.564C113.293 193.471 107.027 199.344 86.5 212.5C83.3565 222.966 82.8931 229.129 82.1382 239.169C82.0934 239.765 82.0475 240.375 82 241C93.8706 227.098 100.5 220.5 110 216.5Z" fill="#D4AF37"/>
<path d="M436.5 309C430.236 249.657 412.137 223.098 351 189C396.954 176.378 423.322 177.667 472 203C437.966 177.418 404.979 154.574 314 183C356.242 201.684 373.152 215.247 395.5 243C337.463 223.469 308.997 224.15 266.5 249C336.544 233.357 375.035 232.918 436.5 309Z" fill="#D4AF37"/>
<path d="M384.5 343C381.825 309.342 372.755 293.194 341 270C346.85 281.686 349.529 287.828 349.5 295.5C305.017 282.926 281.658 288.589 242 315C306.372 291.09 346.906 297.808 384.5 343Z" fill="#D4AF37"/>
<path d="M231.5 380.5C248.913 357.194 259.5 344.5 289 344.5C318.5 344.5 329.985 353.575 359 378C304.885 354.866 276.797 354.48 231.5 380.5Z" fill="#D4AF37"/>
<path d="M100.5 403C160.294 400.255 180.445 388.404 196 351.5C198.916 401.835 205.205 421.826 234.5 425.5C187.365 439.199 163.614 437.478 124.5 418.5C135.17 416.529 140.284 414.634 147.5 409.5C124.634 412.774 114.149 411.601 100.5 403Z" fill="#D4AF37"/>
</svg>
